name rise43.5482peak65.4966fall89.1036.mot
datacolumns 19
datarows 17
range 16.75659600000000 16.78326600000000
endheader
time	ground_force1_vx	ground_force1_vy	ground_force1_vz	ground_force1_px	ground_force1_py	ground_force1_pz	ground_force2_vx	ground_force2_vy	ground_force2_vz	ground_force2_px	ground_force2_py	ground_force2_pz	ground_torque1_x	ground_torque1_y	ground_torque1_z	ground_torque2_x	ground_torque2_y	ground_torque2_z	
16.75659600000000	-5.99341700000000	45.26557200000000	-9.11780200000000	0.32680700000000	0.00000000000000	0.11412100000000	-45.70241700000000	817.61268600000005	-50.34996800000000	0.11354000000000	0.00000000000000	-0.05649500000000	0.00000000000000	-5.34933200000000	0.00000000000000	0.00000000000000	-14.66801600000000	0.00000000000000	
16.75826300000000	-6.50459200000000	51.61123800000000	-9.99615000000000	0.32966100000000	0.00000000000000	0.11482300000000	-46.52636000000000	816.06923200000006	-50.28195900000000	0.11263700000000	0.00000000000000	-0.05641200000000	0.00000000000000	-5.89938200000000	0.00000000000000	0.00000000000000	-14.62483200000000	0.00000000000000	
16.75993400000000	-6.91425800000000	57.85904600000000	-10.75067700000000	0.33226900000000	0.00000000000000	0.11548800000000	-47.36600200000000	814.38125900000000	-50.19344900000000	0.11173200000000	0.00000000000000	-0.05632800000000	0.00000000000000	-6.38222000000000	0.00000000000000	0.00000000000000	-14.58165800000000	0.00000000000000	
16.76160100000000	-7.21165300000000	63.94429600000000	-11.36699700000000	0.33466300000000	0.00000000000000	0.11612300000000	-48.22072400000000	812.54486999999995	-50.08377700000000	0.11082600000000	0.00000000000000	-0.05624100000000	0.00000000000000	-6.78891600000000	0.00000000000000	0.00000000000000	-14.53846900000000	0.00000000000000	
16.76326700000000	-7.39132700000000	69.82795400000001	-11.83827000000000	0.33687200000000	0.00000000000000	0.11672900000000	-49.08980800000000	810.55614700000001	-49.95230500000000	0.10991800000000	0.00000000000000	-0.05615300000000	0.00000000000000	-7.11504900000000	0.00000000000000	0.00000000000000	-14.49523200000000	0.00000000000000	
16.76495200000000	-7.45275500000000	75.49597500000000	-12.16463500000000	0.33891700000000	0.00000000000000	0.11731100000000	-49.97243900000000	808.41116199999999	-49.79841500000000	0.10901000000000	0.00000000000000	-0.05606300000000	0.00000000000000	-7.36041400000000	0.00000000000000	0.00000000000000	-14.45190100000000	0.00000000000000	
16.76659400000000	-7.39961000000000	80.95668400000000	-12.35218000000000	0.34082000000000	0.00000000000000	0.11787100000000	-50.86769500000000	806.10598300000004	-49.62151400000000	0.10810100000000	0.00000000000000	-0.05597200000000	0.00000000000000	-7.52842800000000	0.00000000000000	0.00000000000000	-14.40842500000000	0.00000000000000	
16.76826700000000	-7.23883000000000	86.23678500000000	-12.41159200000000	0.34259600000000	0.00000000000000	0.11841100000000	-51.77455700000000	803.63668900000005	-49.42104100000000	0.10719200000000	0.00000000000000	-0.05587800000000	0.00000000000000	-7.62534000000000	0.00000000000000	0.00000000000000	-14.36474100000000	0.00000000000000	
16.76994100000000	-6.97958400000000	91.37654400000000	-12.35667000000000	0.34425900000000	0.00000000000000	0.11893200000000	-52.69190000000000	800.99938199999997	-49.19646200000000	0.10628300000000	0.00000000000000	-0.05578200000000	0.00000000000000	-7.65934100000000	0.00000000000000	0.00000000000000	-14.32077700000000	0.00000000000000	
16.77159700000000	-6.63223800000000	96.42471000000000	-12.20284000000000	0.34582100000000	0.00000000000000	0.11943800000000	-53.61849800000000	798.19019500000002	-48.94728200000000	0.10537600000000	0.00000000000000	-0.05568500000000	0.00000000000000	-7.63967400000000	0.00000000000000	0.00000000000000	-14.27645300000000	0.00000000000000	
16.77326600000000	-6.20741500000000	101.43362000000000	-11.96579600000000	0.34729300000000	0.00000000000000	0.11992800000000	-54.55302300000000	795.20531000000005	-48.67304200000000	0.10446900000000	0.00000000000000	-0.05558500000000	0.00000000000000	-7.57579900000000	0.00000000000000	0.00000000000000	-14.23167900000000	0.00000000000000	
16.77493000000000	-5.71520000000000	106.45484999999999	-11.66035500000000	0.34868200000000	0.00000000000000	0.12040500000000	-55.49404600000000	792.04096700000002	-48.37332300000000	0.10356400000000	0.00000000000000	-0.05548400000000	0.00000000000000	-7.47669900000000	0.00000000000000	0.00000000000000	-14.18635600000000	0.00000000000000	
16.77660000000000	-5.16452700000000	111.53566400000000	-11.29957200000000	0.34999600000000	0.00000000000000	0.12086800000000	-56.44003700000000	788.69348000000002	-48.04775200000000	0.10266200000000	0.00000000000000	-0.05538100000000	0.00000000000000	-7.35032500000000	0.00000000000000	0.00000000000000	-14.14037800000000	0.00000000000000	
16.77826500000000	-4.56277000000000	116.71639000000000	-10.89415000000000	0.35124100000000	0.00000000000000	0.12132000000000	-57.38937000000000	785.15925500000003	-47.69600100000000	0.10176200000000	0.00000000000000	-0.05527500000000	0.00000000000000	-7.20323200000000	0.00000000000000	0.00000000000000	-14.09363000000000	0.00000000000000	
16.77995300000000	-3.91553000000000	122.02876400000000	-10.45212900000000	0.35242200000000	0.00000000000000	0.12176000000000	-58.34032200000000	781.43479800000000	-47.31779300000000	0.10086500000000	0.00000000000000	-0.05516800000000	0.00000000000000	-7.04036800000000	0.00000000000000	0.00000000000000	-14.04598900000000	0.00000000000000	
16.78159800000000	-3.22659800000000	127.49518600000000	-9.97883100000000	0.35354500000000	0.00000000000000	0.12219000000000	-59.29107700000000	777.51673800000003	-46.91290300000000	0.09997100000000	0.00000000000000	-0.05505900000000	0.00000000000000	-6.86503700000000	0.00000000000000	0.00000000000000	-13.99732400000000	0.00000000000000	
16.78326600000000	-2.49806500000000	133.12879500000000	-9.47702300000000	0.35461200000000	0.00000000000000	0.12260900000000	-60.23972900000000	773.40184299999999	-46.48116000000000	0.09908200000000	0.00000000000000	-0.05494800000000	0.00000000000000	-6.67898200000000	0.00000000000000	0.00000000000000	-13.94749800000000	0.00000000000000	
